<svg width="334" height="347" viewBox="0 0 334 347" fill="none" xmlns="http://www.w3.org/2000/svg">
<path d="M6.62048 16.0836C6.62048 40.2101 6.62048 64.3365 6.62048 88.463C6.62048 96.2217 8.02591 103.687 8.02591 111.34C8.02591 119.064 7.85306 128.794 9.50941 136.247C12.8507 151.283 10.8368 169.116 10.8368 184.735C10.8368 228.571 14.7909 274.827 9.35326 318.328C8.79524 322.792 8.65756 328.112 7.3232 332.382C5.60216 337.89 11.6929 336.521 15.3654 336.521C22.4997 336.521 29.5479 337.926 36.8371 337.926C54.1707 337.926 71.5043 337.926 88.8379 337.926C96.5937 337.926 104.35 337.926 112.105 337.926C122.998 337.926 131.339 335.734 141.854 333.397C151.012 331.362 159.984 326.63 168.947 323.872C177.724 321.171 185.435 317.589 192.137 311.223C206.957 297.144 219.228 284.214 225.555 264.532C228.189 256.335 230.824 243.514 236.408 236.813C241.474 230.734 242.201 223.28 246.167 216.747C255.967 200.606 252.57 179.26 252.57 161.155C252.57 146.632 252.57 132.109 252.57 117.587C252.57 109.158 246.764 105.533 242.732 99.0818C237.926 91.3923 236.013 81.7083 231.801 73.706C224.729 60.2694 208.752 48.1583 197.758 37.165" stroke="black" stroke-width="12" stroke-linecap="round"/>
<path d="M6.62048 11.8673C26.2986 11.8673 44.4668 6.78012 64.2429 6.24563C72.762 6.01538 81.3308 6.24563 89.8529 6.24563C97.6994 6.24563 103.255 10.7369 110.622 11.7892C127.152 14.1507 142.51 14.0609 157.782 21.0026C165.395 24.4629 173.432 24.4434 181.362 27.327C183.635 28.1537 185.341 29.9193 187.92 30.8406C191.418 32.0898 194.31 32.6945 196.353 35.7596" stroke="black" stroke-width="12" stroke-linecap="round"/>
<path d="M74.2201 13C74.2201 38.3176 77.031 63.1126 77.031 88.5807C77.031 116.299 77.031 144.017 77.031 171.735C77.031 191.228 73.407 211.251 69.3011 230.138C66.3264 243.822 67.193 258.287 67.193 272.301C67.193 283.05 67.193 293.799 67.193 304.548C67.193 310.933 66.1507 317.772 68.9107 323.599C70.9309 327.864 69.6107 338.928 74.2201 340.464" stroke="black" stroke-width="12" stroke-linecap="round"/>
<path d="M78.4054 6C94.5675 6 109.73 10.2163 126.112 10.2163C136.903 10.2163 148.068 11.6217 159.217 11.6217C171.419 11.6217 183.325 10.2163 195.68 10.2163C210.723 10.2163 226.491 14.7345 240.029 21.1474C251.858 26.7504 261.658 34.1439 271.651 41.9164C277.124 46.173 281.259 50.0405 286.096 54.8776C291.27 60.0511 295.433 66.8157 301.165 71.2742C310.712 78.6991 318.41 99.8527 320.061 111.407C321.787 123.495 322.892 135.697 324.433 148.026C326.288 162.869 327.166 177.118 327.166 192.297C327.166 198.387 327.166 204.477 327.166 210.567C327.166 217.852 320.62 228.462 317.64 235.084C312.464 246.587 303.279 259.093 294.841 268.736C285.586 279.313 274.613 289.242 263.922 298.407C253.31 307.502 238.498 306.763 225.975 312.695C209.925 320.298 188.664 317.167 171.476 321.908C153.185 326.954 133.564 329.327 115.259 334.557C104.04 337.763 88.782 334.87 77 334.87" stroke="black" stroke-width="12" stroke-linecap="round"/>
</svg>
